HIERARCHY
ROOT Hips
{
	OFFSET -354.814270 -588.171936 88.516190
	CHANNELS 6 Xposition Yposition Zposition Zrotation Yrotation Xrotation
	JOINT Spine
	{
		OFFSET 0.000000 2.080078 8.814247
		CHANNELS 6 Xposition Yposition Zposition Zrotation Yrotation Xrotation
		JOINT Spine1
		{
			OFFSET 0.000000 0.000000 8.844139
			CHANNELS 6 Xposition Yposition Zposition Zrotation Yrotation Xrotation
			JOINT Spine2
			{
				OFFSET 0.000000 0.000000 11.682266
				CHANNELS 6 Xposition Yposition Zposition Zrotation Yrotation Xrotation
				JOINT Spine3
				{
					OFFSET 0.000000 0.000000 11.746704
					CHANNELS 6 Xposition Yposition Zposition Zrotation Yrotation Xrotation
					JOINT Neck
					{
						OFFSET 0.000000 0.000000 17.658264
						CHANNELS 6 Xposition Yposition Zposition Zrotation Yrotation Xrotation
						JOINT Neck1
						{
							OFFSET 0.000000 0.000000 5.101517
							CHANNELS 6 Xposition Yposition Zposition Zrotation Yrotation Xrotation
							JOINT Head
							{
								OFFSET 0.000000 0.000000 5.101517
								CHANNELS 6 Xposition Yposition Zposition Zrotation Yrotation Xrotation
								JOINT HeadEnd
								{
									OFFSET 0.000000 0.000000 11.655090
									CHANNELS 6 Xposition Yposition Zposition Zrotation Yrotation Xrotation
									End Site
									{
										OFFSET 0.000000 0.000000 0.100006
									}
								}
							}
						}
					}
					JOINT RightShoulder
					{
						OFFSET -2.625397 0.000000 11.175217
						CHANNELS 6 Xposition Yposition Zposition Zrotation Yrotation Xrotation
						JOINT RightArm
						{
							OFFSET 0.000000 0.000000 10.434723
							CHANNELS 6 Xposition Yposition Zposition Zrotation Yrotation Xrotation
							JOINT RightForeArm
							{
								OFFSET 0.000000 0.000000 29.628418
								CHANNELS 6 Xposition Yposition Zposition Zrotation Yrotation Xrotation
								JOINT RightHand
								{
									OFFSET 0.000000 0.000000 22.857605
									CHANNELS 6 Xposition Yposition Zposition Zrotation Yrotation Xrotation
									JOINT RightHandThumb1
									{
										OFFSET -2.867310 -2.944275 3.959564
										CHANNELS 6 Xposition Yposition Zposition Zrotation Yrotation Xrotation
										JOINT RightHandThumb2
										{
											OFFSET 0.000000 0.000000 3.350403
											CHANNELS 6 Xposition Yposition Zposition Zrotation Yrotation Xrotation
											JOINT RightHandThumb3
											{
												OFFSET 0.000000 0.000000 3.756516
												CHANNELS 6 Xposition Yposition Zposition Zrotation Yrotation Xrotation
												JOINT RightHandThumb4
												{
													OFFSET 0.000000 0.000000 3.147339
													CHANNELS 6 Xposition Yposition Zposition Zrotation Yrotation Xrotation
													End Site
													{
														OFFSET 0.000000 0.000000 0.100006
													}
												}
											}
										}
									}
									JOINT RightHandIndex1
									{
										OFFSET -0.086761 -2.345276 10.030899
										CHANNELS 6 Xposition Yposition Zposition Zrotation Yrotation Xrotation
										JOINT RightHandIndex2
										{
											OFFSET 0.000000 0.000000 4.061096
											CHANNELS 6 Xposition Yposition Zposition Zrotation Yrotation Xrotation
											JOINT RightHandIndex3
											{
												OFFSET 0.000000 0.000000 3.248871
												CHANNELS 6 Xposition Yposition Zposition Zrotation Yrotation Xrotation
												JOINT RightHandIndex4
												{
													OFFSET 0.000000 0.000000 2.639709
													CHANNELS 6 Xposition Yposition Zposition Zrotation Yrotation Xrotation
													End Site
													{
														OFFSET 0.000000 0.000000 0.100006
													}
												}
											}
										}
									}
									JOINT RightHandMiddle1
									{
										OFFSET 0.104095 -0.006775 9.502945
										CHANNELS 6 Xposition Yposition Zposition Zrotation Yrotation Xrotation
										JOINT RightHandMiddle2
										{
											OFFSET 0.000000 0.000000 4.568726
											CHANNELS 6 Xposition Yposition Zposition Zrotation Yrotation Xrotation
											JOINT RightHandMiddle3
											{
												OFFSET 0.000000 0.000000 3.654984
												CHANNELS 6 Xposition Yposition Zposition Zrotation Yrotation Xrotation
												JOINT RightHandMiddle4
												{
													OFFSET 0.000000 0.000000 2.741241
													CHANNELS 6 Xposition Yposition Zposition Zrotation Yrotation Xrotation
													End Site
													{
														OFFSET 0.000000 0.000000 0.100006
													}
												}
											}
										}
									}
									JOINT RightHandRing1
									{
										OFFSET 0.086761 2.267456 8.921707
										CHANNELS 6 Xposition Yposition Zposition Zrotation Yrotation Xrotation
										JOINT RightHandRing2
										{
											OFFSET 0.000000 0.000000 4.061096
											CHANNELS 6 Xposition Yposition Zposition Zrotation Yrotation Xrotation
											JOINT RightHandRing3
											{
												OFFSET 0.000000 0.000000 3.654984
												CHANNELS 6 Xposition Yposition Zposition Zrotation Yrotation Xrotation
												JOINT RightHandRing4
												{
													OFFSET 0.000000 0.000000 2.741241
													CHANNELS 6 Xposition Yposition Zposition Zrotation Yrotation Xrotation
													End Site
													{
														OFFSET 0.000000 0.000000 0.100006
													}
												}
											}
										}
									}
									JOINT RightHandPinky1
									{
										OFFSET -0.173492 4.467224 7.976990
										CHANNELS 6 Xposition Yposition Zposition Zrotation Yrotation Xrotation
										JOINT RightHandPinky2
										{
											OFFSET 0.000000 0.000000 3.350403
											CHANNELS 6 Xposition Yposition Zposition Zrotation Yrotation Xrotation
											JOINT RightHandPinky3
											{
												OFFSET 0.000000 0.000000 2.842758
												CHANNELS 6 Xposition Yposition Zposition Zrotation Yrotation Xrotation
												JOINT RightHandPinky4
												{
													OFFSET 0.000000 0.000000 2.639709
													CHANNELS 6 Xposition Yposition Zposition Zrotation Yrotation Xrotation
													End Site
													{
														OFFSET 0.000000 0.000000 0.100006
													}
												}
											}
										}
									}
									JOINT RightForeArmEnd
									{
										OFFSET 0.000000 0.000000 0.000000
										CHANNELS 6 Xposition Yposition Zposition Zrotation Yrotation Xrotation
										End Site
										{
											OFFSET 0.000000 0.000000 0.100006
										}
									}
								}
								JOINT RightArmEnd
								{
									OFFSET 0.000000 0.000000 0.000000
									CHANNELS 6 Xposition Yposition Zposition Zrotation Yrotation Xrotation
									End Site
									{
										OFFSET 0.000000 0.000000 0.100006
									}
								}
							}
						}
					}
					JOINT LeftShoulder
					{
						OFFSET 2.625397 0.000000 11.175217
						CHANNELS 6 Xposition Yposition Zposition Zrotation Yrotation Xrotation
						JOINT LeftArm
						{
							OFFSET 0.000000 0.000000 10.813629
							CHANNELS 6 Xposition Yposition Zposition Zrotation Yrotation Xrotation
							JOINT LeftForeArm
							{
								OFFSET 0.000000 0.000000 28.724777
								CHANNELS 6 Xposition Yposition Zposition Zrotation Yrotation Xrotation
								JOINT LeftHand
								{
									OFFSET 0.644379 0.328857 25.716171
									CHANNELS 6 Xposition Yposition Zposition Zrotation Yrotation Xrotation
									JOINT LeftHandThumb1
									{
										OFFSET 2.867310 -2.944275 3.959564
										CHANNELS 6 Xposition Yposition Zposition Zrotation Yrotation Xrotation
										JOINT LeftHandThumb2
										{
											OFFSET 0.000000 0.000000 3.350403
											CHANNELS 6 Xposition Yposition Zposition Zrotation Yrotation Xrotation
											JOINT LeftHandThumb3
											{
												OFFSET 0.000000 0.000000 3.756516
												CHANNELS 6 Xposition Yposition Zposition Zrotation Yrotation Xrotation
												JOINT LeftHandThumb4
												{
													OFFSET 0.000000 0.000000 3.100006
													CHANNELS 6 Xposition Yposition Zposition Zrotation Yrotation Xrotation
													End Site
													{
														OFFSET 0.000000 0.000000 0.100006
													}
												}
											}
										}
									}
									JOINT LeftHandIndex1
									{
										OFFSET 0.086761 -2.345276 10.030899
										CHANNELS 6 Xposition Yposition Zposition Zrotation Yrotation Xrotation
										JOINT LeftHandIndex2
										{
											OFFSET 0.000000 0.000000 4.061096
											CHANNELS 6 Xposition Yposition Zposition Zrotation Yrotation Xrotation
											JOINT LeftHandIndex3
											{
												OFFSET 0.000000 0.000000 3.248871
												CHANNELS 6 Xposition Yposition Zposition Zrotation Yrotation Xrotation
												JOINT LeftHandIndex4
												{
													OFFSET 0.000000 0.000000 2.639709
													CHANNELS 6 Xposition Yposition Zposition Zrotation Yrotation Xrotation
													End Site
													{
														OFFSET 0.000000 0.000000 0.100006
													}
												}
											}
										}
									}
									JOINT LeftHandMiddle1
									{
										OFFSET -0.104095 -0.006775 9.502945
										CHANNELS 6 Xposition Yposition Zposition Zrotation Yrotation Xrotation
										JOINT LeftHandMiddle2
										{
											OFFSET 0.000000 0.000000 4.568726
											CHANNELS 6 Xposition Yposition Zposition Zrotation Yrotation Xrotation
											JOINT LeftHandMiddle3
											{
												OFFSET 0.000000 0.000000 3.654984
												CHANNELS 6 Xposition Yposition Zposition Zrotation Yrotation Xrotation
												JOINT LeftHandMiddle4
												{
													OFFSET 0.000000 0.000000 2.741241
													CHANNELS 6 Xposition Yposition Zposition Zrotation Yrotation Xrotation
													End Site
													{
														OFFSET 0.000000 0.000000 0.100006
													}
												}
											}
										}
									}
									JOINT LeftHandRing1
									{
										OFFSET -0.086761 2.267456 8.921707
										CHANNELS 6 Xposition Yposition Zposition Zrotation Yrotation Xrotation
										JOINT LeftHandRing2
										{
											OFFSET 0.000000 0.000000 4.061096
											CHANNELS 6 Xposition Yposition Zposition Zrotation Yrotation Xrotation
											JOINT LeftHandRing3
											{
												OFFSET 0.000000 0.000000 3.654984
												CHANNELS 6 Xposition Yposition Zposition Zrotation Yrotation Xrotation
												JOINT LeftHandRing4
												{
													OFFSET 0.000000 0.000000 2.741241
													CHANNELS 6 Xposition Yposition Zposition Zrotation Yrotation Xrotation
													End Site
													{
														OFFSET 0.000000 0.000000 0.100006
													}
												}
											}
										}
									}
									JOINT LeftHandPinky1
									{
										OFFSET 0.173492 4.467224 7.976990
										CHANNELS 6 Xposition Yposition Zposition Zrotation Yrotation Xrotation
										JOINT LeftHandPinky2
										{
											OFFSET 0.000000 0.000000 3.350403
											CHANNELS 6 Xposition Yposition Zposition Zrotation Yrotation Xrotation
											JOINT LeftHandPinky3
											{
												OFFSET 0.000000 0.000000 2.842758
												CHANNELS 6 Xposition Yposition Zposition Zrotation Yrotation Xrotation
												JOINT LeftHandPinky4
												{
													OFFSET 0.000000 0.000000 2.639709
													CHANNELS 6 Xposition Yposition Zposition Zrotation Yrotation Xrotation
													End Site
													{
														OFFSET 0.000000 0.000000 0.100006
													}
												}
											}
										}
									}
									JOINT LeftForeArmEnd
									{
										OFFSET 0.000000 0.000000 0.000000
										CHANNELS 6 Xposition Yposition Zposition Zrotation Yrotation Xrotation
										End Site
										{
											OFFSET 0.000000 0.000000 0.100006
										}
									}
								}
								JOINT LeftArmEnd
								{
									OFFSET 0.000000 0.000000 0.000000
									CHANNELS 6 Xposition Yposition Zposition Zrotation Yrotation Xrotation
									End Site
									{
										OFFSET 0.000000 0.000000 0.100006
									}
								}
							}
						}
					}
				}
			}
		}
	}
	JOINT RightUpLeg
	{
		OFFSET -11.289948 0.000000 0.000000
		CHANNELS 6 Xposition Yposition Zposition Zrotation Yrotation Xrotation
		JOINT RightLeg
		{
			OFFSET 0.000000 0.000000 -38.200325
			CHANNELS 6 Xposition Yposition Zposition Zrotation Yrotation Xrotation
			JOINT RightFoot
			{
				OFFSET 0.000000 0.000000 -39.900856
				CHANNELS 6 Xposition Yposition Zposition Zrotation Yrotation Xrotation
				JOINT RightToeBase
				{
					OFFSET 0.000000 -15.261658 0.000001
					CHANNELS 6 Xposition Yposition Zposition Zrotation Yrotation Xrotation
					JOINT RightToeBaseEnd
					{
						OFFSET 0.000000 -7.370728 0.000000
						CHANNELS 6 Xposition Yposition Zposition Zrotation Yrotation Xrotation
						End Site
						{
							OFFSET 0.000000 0.000000 0.100000
						}
					}
				}
				JOINT RightLegEnd
				{
					OFFSET 0.000000 0.000000 0.000000
					CHANNELS 6 Xposition Yposition Zposition Zrotation Yrotation Xrotation
					End Site
					{
						OFFSET 0.000000 0.000000 0.100000
					}
				}
			}
			JOINT RightUpLegEnd
			{
				OFFSET 0.000000 0.000000 0.000000
				CHANNELS 6 Xposition Yposition Zposition Zrotation Yrotation Xrotation
				End Site
				{
					OFFSET 0.000000 0.000000 0.099998
				}
			}
		}
	}
	JOINT LeftUpLeg
	{
		OFFSET 11.315674 0.000000 0.000000
		CHANNELS 6 Xposition Yposition Zposition Zrotation Yrotation Xrotation
		JOINT LeftLeg
		{
			OFFSET 0.000000 0.000000 -38.200325
			CHANNELS 6 Xposition Yposition Zposition Zrotation Yrotation Xrotation
			JOINT LeftFoot
			{
				OFFSET 0.000000 0.000000 -39.900856
				CHANNELS 6 Xposition Yposition Zposition Zrotation Yrotation Xrotation
				JOINT LeftToeBase
				{
					OFFSET 0.000000 -15.261658 0.000001
					CHANNELS 6 Xposition Yposition Zposition Zrotation Yrotation Xrotation
					JOINT LeftToeBaseEnd
					{
						OFFSET 0.000000 -7.539978 0.000000
						CHANNELS 6 Xposition Yposition Zposition Zrotation Yrotation Xrotation
						End Site
						{
							OFFSET 0.000000 0.000000 0.100000
						}
					}
				}
				JOINT LeftLegEnd
				{
					OFFSET 0.000000 0.000000 0.000000
					CHANNELS 6 Xposition Yposition Zposition Zrotation Yrotation Xrotation
					End Site
					{
						OFFSET 0.000000 0.000000 0.100000
					}
				}
			}
			JOINT LeftUpLegEnd
			{
				OFFSET 0.000000 0.000000 0.000000
				CHANNELS 6 Xposition Yposition Zposition Zrotation Yrotation Xrotation
				End Site
				{
					OFFSET 0.000000 0.000000 0.099998
				}
			}
		}
	}
}
MOTION
Frames: 2
Frame Time: 0.016667
1.524323 -2.663391 85.868813 0.493186 -0.534608 -23.888730 0.000010 2.079994 8.814220 -0.405532 -2.754136 10.818453 -0.000001 0.000045 8.844145 0.180154 -1.070078 3.524144 -0.000055 -0.000087 11.682262 2.537254 3.625501 16.097702 -0.000070 -0.000068 11.746737 1.204999 4.631505 7.134609 -0.000042 -0.000095 17.658272 4.786775 16.096159 10.966978 -0.000032 -0.000088 5.101542 -0.317614 1.333418 -1.758156 -0.000055 -0.000045 5.101556 -1.966918 0.802150 -22.814881 -0.000040 -0.000057 11.655129 -0.000001 0.000002 0.000000 -2.625429 -0.000064 11.175193 17.363765 -85.714243 0.725482 -0.000023 -0.000046 10.434654 -24.685902 -53.156289 67.204827 -0.000030 -0.000034 29.628302 16.848929 1.291939 84.384453 0.000099 -0.000015 22.857613 81.550799 -13.213219 -7.173330 -2.867310 -2.944321 3.959534 33.336207 -11.335308 61.628360 -0.000029 -0.000080 3.350422 -0.000009 -0.000002 -0.000359 -0.000047 -0.000065 3.756514 0.000007 -0.000002 -0.000191 -0.000030 -0.000058 3.147336 -0.000001 -0.000003 -0.000000 -0.086788 -2.345287 10.030876 -10.619849 -10.507698 5.054500 0.000005 -0.000070 4.061116 0.423987 -7.840723 1.108964 -0.000020 -0.000043 3.248898 -0.076001 -7.840744 1.108933 -0.000039 -0.000002 2.639715 -0.000001 0.000001 -0.000003 0.104084 -0.006767 9.502964 -5.401033 -10.165316 3.806322 -0.000006 -0.000033 4.568735 0.468967 -7.368072 0.389076 0.000006 -0.000091 3.654978 -0.028583 -7.368061 0.388740 -0.000027 -0.000010 2.741226 0.000000 -0.000001 0.000001 0.086748 2.267440 8.921703 2.524027 -11.762699 2.185006 -0.000044 -0.000046 4.061127 -0.958124 -8.199319 -0.505760 -0.000012 -0.000030 3.654997 0.040914 -8.199324 -0.505623 -0.000046 -0.000014 2.741262 0.000000 -0.000002 0.000003 -0.173546 4.467257 7.976964 11.181518 -11.947688 -0.483197 -0.000032 -0.000046 3.350420 -1.885039 -8.196182 -1.604351 0.000006 -0.000047 2.842781 0.114939 -8.196201 -1.604320 -0.000034 0.000000 2.639712 -0.000001 -0.000001 0.000001 -0.000022 -0.000063 0.000009 0.000001 0.000000 -0.000001 0.000007 -0.000075 0.000024 0.000002 0.000000 0.000002 2.625383 -0.000074 11.175246 -13.899291 86.975424 -0.608847 -0.000107 -0.000072 10.813652 -12.599104 63.774610 22.536885 0.000015 -0.000038 28.724674 -17.255698 -0.599833 73.652396 0.644318 0.328842 25.716125 -89.917036 24.000747 -17.960659 2.867249 -2.944275 3.959534 -33.343891 11.289097 61.534663 -0.000012 -0.000010 3.350396 0.011032 -0.011019 0.017309 -0.000010 -0.000071 3.756560 0.011031 -0.011029 -0.040999 -0.000032 0.000016 3.100007 0.000000 -0.000001 -0.000001 0.086716 -2.345246 10.030890 -5.815445 16.626089 -2.682408 -0.000008 0.000025 4.061104 0.318316 11.853390 -1.696240 0.000014 0.000013 3.248919 -0.180687 11.853383 -1.694334 -0.000023 -0.000003 2.639706 0.000000 -0.000000 0.000000 -0.104137 -0.006788 9.502928 -0.589217 16.864931 -0.698485 -0.000009 -0.000051 4.568769 0.390871 11.983840 -0.645338 0.000002 -0.000062 3.655021 -0.103209 11.983775 -0.645010 -0.000039 0.000005 2.741236 -0.000000 -0.000001 0.000002 -0.086800 2.267435 8.921700 8.641164 20.615184 2.833601 -0.000045 -0.000018 4.061078 -0.849918 14.744179 0.929038 -0.000026 -0.000006 3.654973 0.131650 14.745262 0.923875 -0.000001 -0.000003 2.741258 0.000000 0.000001 0.000004 0.173439 4.467141 7.977020 18.334065 22.042807 7.029880 -0.000010 -0.000017 3.350414 -1.548858 16.074382 3.208187 -0.000032 0.000021 2.842768 0.451173 16.074423 3.207233 -0.000001 -0.000060 2.639729 -0.000000 -0.000000 0.000001 0.000013 -0.000002 -0.000012 0.000001 -0.000001 -0.000001 -0.000071 -0.000007 -0.000006 0.000001 0.000001 0.000001 -11.289928 -0.000027 0.000000 -3.115315 8.729607 17.577538 0.000010 0.000062 -38.200302 -1.128685 0.552490 26.390137 -0.000013 0.000053 -39.900860 -10.080353 -6.588966 7.125512 -0.000023 -15.261610 -0.000004 1.727064 1.565070 -14.078907 0.000014 -7.370673 0.000001 0.000001 0.000000 0.000000 -0.000011 -0.000001 -0.000002 0.000000 -0.000000 -0.000002 0.000000 0.000057 0.000005 0.000000 -0.000000 0.000000 11.315669 -0.000072 0.000001 -4.678268 -1.444165 14.473948 -0.000019 0.000007 -38.200314 0.305308 -0.174888 29.783518 -0.000028 -0.000010 -39.900856 9.163587 1.293903 6.864046 -0.000011 -15.261639 0.000009 -0.789280 -0.437730 -18.937357 0.000001 -7.540042 -0.000001 0.000000 0.000001 -0.000001 -0.000044 0.000004 0.000001 -0.000001 0.000000 -0.000002 -0.000034 -0.000000 -0.000008 0.000000 0.000000 -0.000001 
1.529724 -2.673279 85.867462 0.492561 -0.533061 -23.891365 -0.000042 2.080065 8.814241 -0.404735 -2.749744 10.803140 -0.000044 -0.000018 8.844135 0.178843 -1.069016 3.516449 0.000005 -0.000050 11.682262 2.521364 3.624595 16.118437 -0.000023 -0.000036 11.746727 1.203097 4.633494 7.135669 -0.000025 -0.000063 17.658264 4.809352 16.129676 10.878639 -0.000034 -0.000075 5.101538 -0.305846 1.315963 -1.805584 -0.000071 -0.000030 5.101547 -1.949384 0.798467 -22.810580 -0.000030 -0.000062 11.655109 0.000000 0.000000 -0.000000 -2.625395 -0.000043 11.175206 17.353851 -85.745334 0.734390 0.000008 -0.000015 10.434631 -24.888128 -53.136789 67.147760 -0.000057 -0.000019 29.628353 16.863455 1.308097 84.789777 0.000010 -0.000031 22.857605 81.679179 -13.703323 -7.052333 -2.867294 -2.944351 3.959511 33.336357 -11.335107 61.628182 -0.000044 -0.000064 3.350428 -0.000009 -0.000002 -0.000115 -0.000040 -0.000064 3.756519 0.000010 0.000001 -0.000001 -0.000015 -0.000071 3.147355 0.000001 0.000000 0.000000 -0.086769 -2.345300 10.030914 -10.857081 -11.679448 4.414051 0.000008 -0.000075 4.061100 0.408637 -8.589723 1.216456 0.000011 -0.000068 3.248898 -0.091370 -8.590147 1.216459 -0.000018 -0.000016 2.639705 0.000000 0.000001 -0.000000 0.104103 -0.006799 9.502975 -5.596625 -11.192876 3.273759 -0.000026 -0.000048 4.568741 0.466380 -8.073408 0.426438 0.000011 -0.000041 3.655024 -0.029894 -8.073404 0.425900 -0.000034 0.000005 2.741243 0.000000 -0.000000 -0.000000 0.086754 2.267463 8.921730 2.364776 -12.690217 1.745824 -0.000032 -0.000041 4.061132 -0.955317 -8.880246 -0.547855 -0.000010 -0.000073 3.654997 0.045084 -8.880025 -0.547919 -0.000035 0.000003 2.741244 0.000000 0.000000 0.000003 -0.173481 4.467247 7.977001 11.063422 -12.761842 -0.855596 0.000008 -0.000039 3.350418 -1.867076 -8.807679 -1.725899 -0.000033 -0.000058 2.842798 0.132915 -8.807548 -1.725897 -0.000033 0.000001 2.639693 -0.000001 -0.000002 0.000002 -0.000036 -0.000051 0.000021 -0.000002 -0.000003 -0.000001 -0.000019 -0.000059 0.000024 -0.000001 0.000000 -0.000001 2.625385 -0.000088 11.175273 -13.902621 86.966019 -0.611580 -0.000061 -0.000107 10.813683 -12.655190 63.765540 22.468389 -0.000011 -0.000031 28.724642 -17.253377 -0.599248 73.654629 0.644387 0.328827 25.716156 -89.930116 23.992769 -17.977623 2.867302 -2.944275 3.959557 -33.340479 11.300189 61.552142 -0.000005 0.000006 3.350424 0.011027 -0.011020 -0.022253 0.000013 -0.000050 3.756536 0.011032 -0.011026 -0.022268 -0.000039 0.000015 3.100020 -0.000003 -0.000001 0.000001 0.086720 -2.345289 10.030886 -5.815442 16.603124 -2.696885 -0.000030 0.000020 4.061113 0.318547 11.839032 -1.696117 -0.000030 -0.000005 3.248896 -0.180425 11.838955 -1.692676 -0.000009 -0.000003 2.639729 -0.000000 0.000001 0.000000 -0.104092 -0.006750 9.502951 -0.589817 16.847809 -0.701892 -0.000041 -0.000055 4.568766 0.388781 11.971854 -0.644011 -0.000012 -0.000079 3.655010 -0.104986 11.971815 -0.644174 -0.000040 -0.000007 2.741248 0.000001 0.000003 0.000001 -0.086800 2.267445 8.921730 8.637425 20.606088 2.851632 -0.000035 0.000012 4.061094 -0.849783 14.741162 0.928055 -0.000008 -0.000023 3.655000 0.132471 14.740936 0.923180 -0.000003 -0.000001 2.741253 -0.000000 0.000000 0.000001 0.173431 4.467195 7.977020 18.332014 22.030773 7.078479 -0.000040 -0.000015 3.350418 -1.550601 16.073860 3.207507 0.000001 0.000000 2.842752 0.450121 16.073921 3.205361 0.000002 -0.000059 2.639730 0.000000 -0.000000 0.000001 0.000014 0.000012 0.000019 -0.000003 0.000001 0.000000 -0.000008 0.000001 -0.000010 -0.000001 0.000000 -0.000000 -11.289950 0.000011 0.000015 -3.101842 8.729634 17.591432 -0.000001 -0.000003 -38.200264 -1.129350 0.552586 26.385215 0.000012 0.000119 -39.900856 -10.089691 -6.587577 7.120027 0.000007 -15.261620 0.000009 1.727277 1.564838 -14.075128 0.000013 -7.370727 0.000000 -0.000000 0.000000 -0.000001 -0.000001 0.000051 -0.000001 0.000002 -0.000001 0.000001 -0.000007 0.000057 -0.000001 0.000001 0.000000 -0.000001 11.315646 -0.000004 0.000012 -4.685470 -1.436844 14.485602 0.000018 0.000004 -38.200314 0.305298 -0.174901 29.783962 -0.000018 0.000021 -39.900848 9.175838 1.290773 6.850591 -0.000019 -15.261717 0.000009 -0.789645 -0.438260 -18.931278 -0.000034 -7.540039 0.000000 -0.000000 -0.000001 -0.000001 -0.000033 -0.000002 0.000001 0.000000 0.000000 0.000000 -0.000000 -0.000001 -0.000001 0.000000 0.000001 -0.000001 
